<svg width="612" height="476" viewBox="0 0 612 476" fill="none" xmlns="http://www.w3.org/2000/svg">
<path d="M130.003 26.2615C128.766 27.3646 128.658 29.2611 129.762 30.4973C130.865 31.7335 132.761 31.8415 133.997 30.7384L130.003 26.2615ZM309 12.5L308.046 15.3444L309 12.5ZM540.5 114L539.678 116.885L540.5 114ZM0.535236 370.29C-0.409306 371.651 -0.0714965 373.52 1.28976 374.465L23.4726 389.857C24.8339 390.802 26.7031 390.464 27.6476 389.102C28.5922 387.741 28.2544 385.872 26.8931 384.927L7.17501 371.246L20.857 351.527C21.8015 350.166 21.4637 348.297 20.1024 347.352C18.7412 346.408 16.872 346.746 15.9274 348.107L0.535236 370.29ZM11.6184 373.589C13.2554 373.333 14.3748 371.798 14.1187 370.161C13.8626 368.524 12.328 367.405 10.691 367.661L11.6184 373.589ZM26.9245 365.526C25.2769 365.7 24.0828 367.178 24.2574 368.825C24.4321 370.473 25.9093 371.667 27.557 371.492L26.9245 365.526ZM43.5685 370.227C45.2232 370.142 46.4957 368.732 46.4108 367.077C46.3258 365.422 44.9156 364.15 43.2609 364.235L43.5685 370.227ZM59.6739 363.874C58.0171 363.861 56.6629 365.193 56.6491 366.849C56.6354 368.506 57.9674 369.861 59.6242 369.874L59.6739 363.874ZM75.6709 370.524C77.3232 370.646 78.7615 369.405 78.8834 367.753C79.0053 366.1 77.7645 364.662 76.1122 364.54L75.6709 370.524ZM92.4966 366.331C90.8572 366.091 89.3339 367.226 89.0942 368.865C88.8545 370.505 89.9893 372.028 91.6287 372.268L92.4966 366.331ZM107.39 375.195C109.006 375.562 110.613 374.549 110.979 372.933C111.346 371.318 110.334 369.71 108.718 369.344L107.39 375.195ZM124.637 373.665C123.058 373.162 121.371 374.035 120.869 375.614C120.366 377.193 121.239 378.88 122.818 379.382L124.637 373.665ZM137.75 384.887C139.277 385.531 141.036 384.817 141.681 383.29C142.326 381.764 141.611 380.004 140.084 379.36L137.75 384.887ZM155.043 386.563C153.589 385.77 151.766 386.306 150.973 387.761C150.18 389.215 150.716 391.038 152.171 391.831L155.043 386.563ZM165.701 400.167C167.062 401.111 168.931 400.773 169.876 399.412C170.82 398.051 170.482 396.181 169.121 395.237L165.701 400.167ZM182.22 405.496C180.979 404.398 179.083 404.514 177.985 405.756C176.888 406.997 177.004 408.893 178.245 409.99L182.22 405.496ZM189.418 421.228C190.504 422.479 192.399 422.612 193.65 421.526C194.901 420.439 195.034 418.544 193.947 417.294L189.418 421.228ZM203.928 430.708C203.05 429.302 201.199 428.875 199.794 429.752C198.389 430.63 197.961 432.481 198.839 433.886L203.928 430.708ZM205.714 447.837C206.267 449.399 207.982 450.217 209.543 449.664C211.105 449.11 211.923 447.396 211.37 445.834L205.714 447.837ZM213.934 463.132C214.139 461.488 212.971 459.99 211.327 459.786C209.683 459.581 208.184 460.749 207.98 462.393L213.934 463.132ZM200.442 469.925C198.785 469.921 197.439 471.261 197.435 472.918C197.431 474.574 198.771 475.921 200.428 475.925L200.442 469.925ZM183.704 470.164C185.124 471.019 186.967 470.56 187.822 469.141C188.676 467.721 188.218 465.878 186.798 465.023L183.704 470.164ZM175.334 455.512C174.388 454.152 172.518 453.817 171.158 454.764C169.798 455.711 169.464 457.58 170.41 458.94L175.334 455.512ZM165.429 441.986C165.437 443.643 166.786 444.98 168.443 444.973C170.099 444.965 171.437 443.616 171.429 441.959L165.429 441.986ZM173.976 427.066C174.468 425.484 173.585 423.802 172.003 423.31C170.421 422.818 168.739 423.701 168.247 425.283L173.976 427.066ZM174.483 409.923C173.755 411.411 174.372 413.208 175.861 413.935C177.349 414.663 179.146 414.046 179.873 412.558L174.483 409.923ZM187.493 398.71C188.351 397.293 187.898 395.448 186.48 394.59C185.063 393.732 183.218 394.186 182.36 395.603L187.493 398.71ZM191.244 381.925C190.303 383.288 190.646 385.157 192.009 386.098C193.373 387.039 195.241 386.696 196.182 385.333L191.244 381.925ZM205.571 372.363C206.57 371.041 206.307 369.16 204.985 368.161C203.663 367.162 201.782 367.424 200.783 368.746L205.571 372.363ZM210.791 355.954C209.75 357.242 209.951 359.131 211.24 360.172C212.529 361.214 214.418 361.013 215.459 359.724L210.791 355.954ZM225.73 347.35C226.804 346.088 226.651 344.195 225.39 343.121C224.128 342.047 222.234 342.199 221.161 343.461L225.73 347.35ZM231.82 331.208C230.72 332.447 230.832 334.343 232.071 335.443C233.31 336.543 235.206 336.43 236.307 335.191L231.82 331.208ZM247.106 323.245C248.227 322.026 248.148 320.128 246.928 319.006C245.708 317.885 243.81 317.964 242.689 319.184L247.106 323.245ZM253.691 307.398C252.552 308.601 252.604 310.5 253.807 311.639C255.01 312.778 256.908 312.726 258.048 311.523L253.691 307.398ZM269.183 299.915C270.338 298.726 270.31 296.827 269.121 295.673C267.933 294.518 266.034 294.546 264.879 295.735L269.183 299.915ZM276.225 284.184C275.058 285.36 275.065 287.259 276.24 288.427C277.416 289.594 279.315 289.587 280.483 288.411L276.225 284.184ZM291.911 277.016C293.09 275.852 293.101 273.952 291.937 272.773C290.773 271.595 288.873 271.583 287.695 272.747L291.911 277.016ZM299.216 261.467C298.027 262.621 297.999 264.52 299.153 265.709C300.307 266.898 302.206 266.926 303.395 265.772L299.216 261.467ZM314.999 254.593C316.197 253.448 316.24 251.549 315.095 250.351C313.95 249.154 312.051 249.111 310.853 250.256L314.999 254.593ZM322.578 239.124C321.373 240.26 321.317 242.159 322.454 243.365C323.591 244.57 325.489 244.626 326.695 243.489L322.578 239.124ZM338.451 232.473C339.664 231.343 339.731 229.445 338.602 228.233C337.473 227.02 335.574 226.953 334.362 228.082L338.451 232.473ZM346.215 217.105C344.996 218.227 344.918 220.125 346.041 221.344C347.163 222.562 349.061 222.641 350.28 221.518L346.215 217.105ZM362.168 210.626C363.392 209.509 363.48 207.612 362.364 206.388C361.247 205.163 359.35 205.076 358.126 206.192L362.168 210.626ZM370.065 195.357C368.836 196.467 368.74 198.364 369.85 199.594C370.961 200.823 372.858 200.92 374.088 199.809L370.065 195.357ZM386.093 189.009C387.327 187.903 387.431 186.006 386.325 184.772C385.22 183.538 383.323 183.434 382.089 184.54L386.093 189.009ZM394.146 173.778C392.908 174.879 392.797 176.775 393.898 178.013C394.999 179.251 396.896 179.362 398.134 178.261L394.146 173.778ZM410.188 167.576C411.429 166.479 411.546 164.583 410.449 163.342C409.352 162.1 407.456 161.983 406.215 163.08L410.188 167.576ZM418.298 152.434C417.053 153.528 416.931 155.423 418.024 156.668C419.118 157.913 421.013 158.035 422.258 156.942L418.298 152.434ZM434.426 146.278C435.673 145.187 435.8 143.292 434.709 142.045C433.619 140.798 431.724 140.671 430.476 141.761L434.426 146.278ZM442.658 131.131C441.409 132.219 441.278 134.114 442.367 135.363C443.455 136.613 445.35 136.743 446.599 135.655L442.658 131.131ZM458.77 125.07C460.021 123.983 460.154 122.089 459.067 120.838C457.981 119.587 456.086 119.454 454.835 120.54L458.77 125.07ZM467.003 109.979C465.751 111.065 465.617 112.96 466.702 114.211C467.788 115.463 469.683 115.597 470.935 114.511L467.003 109.979ZM483.097 103.96C484.349 102.874 484.483 100.979 483.397 99.7277C482.31 98.4764 480.416 98.3424 479.164 99.4284L483.097 103.96ZM491.328 88.8582C490.078 89.9461 489.947 91.8411 491.035 93.0907C492.123 94.3404 494.018 94.4715 495.268 93.3836L491.328 88.8582ZM507.453 82.7417C508.699 81.6493 508.823 79.7539 507.731 78.5082C506.638 77.2624 504.743 77.1381 503.497 78.2305L507.453 82.7417ZM515.638 67.5139C514.4 68.6156 514.29 70.5119 515.392 71.7494C516.493 72.9869 518.39 73.0971 519.627 71.9954L515.638 67.5139ZM531.975 61.2335C533.271 60.2006 533.484 58.3131 532.451 57.0176C531.418 55.722 529.531 55.5091 528.235 56.542L531.975 61.2335ZM542.806 46.6226C541.361 47.4339 540.848 49.2626 541.659 50.7073C542.47 52.152 544.299 52.6655 545.744 51.8543L542.806 46.6226ZM560.787 45.5494C562.388 45.1202 563.337 43.4749 562.908 41.8746C562.479 40.2743 560.833 39.325 559.233 39.7542L560.787 45.5494ZM577.347 38.3042C575.703 38.0959 574.202 39.2595 573.994 40.9032C573.785 42.5469 574.949 44.0482 576.593 44.2566L577.347 38.3042ZM591.031 49.8512C592.38 50.813 594.253 50.4989 595.215 49.1497C596.177 47.8005 595.863 45.9272 594.513 44.9655L591.031 49.8512ZM606.572 58.7999C605.786 57.3417 603.966 56.7971 602.508 57.5837C601.049 58.3703 600.505 60.19 601.292 61.6483L606.572 58.7999ZM605.856 76.8171C606.01 78.4667 607.473 79.6786 609.123 79.524C610.772 79.3694 611.984 77.9067 611.83 76.2571L605.856 76.8171ZM609.738 94.426C610.28 92.8603 609.45 91.1517 607.884 90.61C606.318 90.0682 604.61 90.8983 604.068 92.4641L609.738 94.426ZM595.614 105.458C594.393 106.578 594.312 108.476 595.432 109.697C596.553 110.917 598.45 110.999 599.671 109.878L595.614 105.458ZM583.656 118.784C585.242 118.307 586.142 116.634 585.665 115.048C585.188 113.461 583.515 112.561 581.928 113.038L583.656 118.784ZM565.933 115.082C564.276 115.06 562.916 116.386 562.894 118.043C562.872 119.699 564.197 121.06 565.854 121.082L565.933 115.082ZM548.272 119.019C549.893 119.359 551.484 118.32 551.824 116.699C552.164 115.077 551.125 113.487 549.504 113.147L548.272 119.019ZM533.989 108.781C532.423 108.238 530.714 109.067 530.172 110.632C529.629 112.198 530.458 113.907 532.023 114.449L533.989 108.781ZM517.102 108.708C518.632 109.343 520.388 108.617 521.023 107.087C521.658 105.557 520.932 103.801 519.402 103.166L517.102 108.708ZM504.949 96.8864C503.439 96.2057 501.663 96.8785 500.982 98.3891C500.301 99.8997 500.974 101.676 502.485 102.357L504.949 96.8864ZM488.102 95.7196C489.601 96.425 491.388 95.7815 492.094 94.2823C492.799 92.7831 492.156 90.9959 490.656 90.2905L488.102 95.7196ZM476.408 83.4999C474.915 82.7812 473.122 83.4087 472.403 84.9016C471.684 86.3944 472.312 88.1872 473.805 88.906L476.408 83.4999ZM459.56 82.0064C461.05 82.7311 462.845 82.1108 463.57 80.6208C464.294 79.1309 463.674 77.3355 462.184 76.6108L459.56 82.0064ZM447.964 69.6852C446.474 68.9598 444.678 69.5793 443.953 71.0689C443.228 72.5586 443.847 74.3542 445.337 75.0796L447.964 69.6852ZM431.112 68.17C432.604 68.8918 434.398 68.268 435.12 66.7766C435.841 65.2853 435.218 63.4912 433.726 62.7693L431.112 68.17ZM419.471 55.9091C417.977 55.1945 416.185 55.8271 415.471 57.3219C414.756 58.8168 415.389 60.6079 416.884 61.3224L419.471 55.9091ZM402.615 54.5609C404.115 55.2647 405.901 54.6194 406.605 53.1195C407.309 51.6195 406.664 49.833 405.164 49.1292L402.615 54.5609ZM390.79 42.4637C389.284 41.774 387.503 42.4362 386.814 43.9428C386.124 45.4493 386.786 47.2296 388.293 47.9192L390.79 42.4637ZM373.91 41.4343C375.424 42.106 377.196 41.4227 377.868 39.9081C378.54 38.3936 377.857 36.6212 376.342 35.9495L373.91 41.4343ZM361.802 29.6226C360.277 28.973 358.515 29.6819 357.865 31.2061C357.216 32.7302 357.925 34.4925 359.449 35.1421L361.802 29.6226ZM344.896 29.085C346.431 29.7078 348.181 28.968 348.803 27.4326C349.426 25.8973 348.686 24.1478 347.151 23.525L344.896 29.085ZM332.379 17.7093C330.83 17.1193 329.097 17.896 328.507 19.4443C327.917 20.9925 328.694 22.7259 330.242 23.316L332.379 17.7093ZM315.476 17.898C317.039 18.448 318.752 17.6269 319.302 16.064C319.852 14.5011 319.031 12.7883 317.468 12.2382L315.476 17.898ZM302.569 7.39969C300.972 6.95741 299.319 7.89328 298.877 9.49002C298.434 11.0867 299.37 12.7397 300.967 13.182L302.569 7.39969ZM286.488 9.91158C288.119 10.2031 289.678 9.11728 289.969 7.48628C290.261 5.85527 289.175 4.29674 287.544 4.0052L286.488 9.91158ZM272.323 1.91431C270.675 1.75171 269.206 2.95656 269.044 4.60542C268.881 6.25427 270.086 7.72275 271.735 7.88535L272.323 1.91431ZM256.836 6.93175C258.492 6.98351 259.876 5.68297 259.928 4.02692C259.98 2.37088 258.679 0.986435 257.023 0.934682L256.836 6.93175ZM241.717 0.911905C240.061 0.956657 238.754 2.33559 238.799 3.99184C238.844 5.64809 240.223 6.95447 241.879 6.90972L241.717 0.911905ZM226.926 7.70803C228.578 7.57772 229.811 6.13309 229.681 4.48137C229.55 2.82965 228.106 1.59631 226.454 1.72662L226.926 7.70803ZM211.268 3.29026C209.625 3.49828 208.461 4.99942 208.669 6.64317C208.877 8.28691 210.378 9.4508 212.022 9.24279L211.268 3.29026ZM197.175 11.4606C198.808 11.1796 199.904 9.62814 199.623 7.99529C199.342 6.36244 197.791 5.26654 196.158 5.54753L197.175 11.4606ZM181.175 8.46583C179.556 8.81848 178.53 10.4167 178.883 12.0356C179.235 13.6545 180.833 14.681 182.452 14.3284L181.175 8.46583ZM167.876 17.8583C169.476 17.4296 170.426 15.7847 169.998 14.1843C169.569 12.5838 167.924 11.6339 166.324 12.0625L167.876 17.8583ZM151.647 16.4345C150.074 16.9567 149.223 18.6547 149.745 20.2271C150.267 21.7996 151.965 22.6509 153.538 22.1287L151.647 16.4345ZM139.735 27.4429C141.237 26.7446 141.889 24.9605 141.191 23.458C140.493 21.9554 138.709 21.3035 137.206 22.0018L139.735 27.4429ZM3.53353 374.952C6.25828 374.46 8.95321 374.006 11.6184 373.589L10.691 367.661C7.97869 368.085 5.23722 368.547 2.46647 369.048L3.53353 374.952ZM27.557 371.492C33.0296 370.912 38.3663 370.494 43.5685 370.227L43.2609 364.235C37.9482 364.508 32.5031 364.934 26.9245 365.526L27.557 371.492ZM59.6242 369.874C65.1393 369.92 70.4875 370.141 75.6709 370.524L76.1122 364.54C70.7964 364.148 65.3175 363.921 59.6739 363.874L59.6242 369.874ZM91.6287 372.268C97.0882 373.066 102.341 374.049 107.39 375.195L108.718 369.344C103.515 368.163 98.1088 367.151 92.4966 366.331L91.6287 372.268ZM122.818 379.382C128.051 381.047 133.027 382.892 137.75 384.887L140.084 379.36C135.191 377.293 130.043 375.385 124.637 373.665L122.818 379.382ZM152.171 391.831C157.009 394.47 161.517 397.264 165.701 400.167L169.121 395.237C164.761 392.212 160.07 389.305 155.043 386.563L152.171 391.831ZM178.245 409.99C182.422 413.684 186.142 417.458 189.418 421.228L193.947 417.294C190.497 413.322 186.591 409.361 182.22 405.496L178.245 409.99ZM198.839 433.886C201.906 438.797 204.183 443.514 205.714 447.837L211.37 445.834C209.676 441.052 207.198 435.943 203.928 430.708L198.839 433.886ZM207.98 462.393C207.646 465.082 206.757 466.93 205.599 468.084C204.485 469.194 202.857 469.931 200.442 469.925L200.428 475.925C204.182 475.934 207.425 474.735 209.834 472.333C212.2 469.976 213.487 466.735 213.934 463.132L207.98 462.393ZM186.798 465.023C184.772 463.804 182.607 462.339 180.305 460.604L176.695 465.396C179.141 467.239 181.478 468.825 183.704 470.164L186.798 465.023ZM180.305 460.604C178.267 459.068 176.625 457.365 175.334 455.512L170.41 458.94C172.087 461.348 174.183 463.503 176.695 465.396L180.305 460.604ZM171.429 441.959C171.41 437.544 172.263 432.571 173.976 427.066L168.247 425.283C166.405 431.202 165.407 436.8 165.429 441.986L171.429 441.959ZM179.873 412.558C182.034 408.139 184.583 403.517 187.493 398.71L182.36 395.603C179.373 400.537 176.735 405.317 174.483 409.923L179.873 412.558ZM196.182 385.333C199.095 381.112 202.23 376.785 205.571 372.363L200.783 368.746C197.397 373.229 194.211 377.626 191.244 381.925L196.182 385.333ZM215.459 359.724C218.741 355.661 222.169 351.533 225.73 347.35L221.161 343.461C217.569 347.68 214.108 351.847 210.791 355.954L215.459 359.724ZM236.307 335.191C239.808 331.248 243.411 327.264 247.106 323.245L242.689 319.184C238.972 323.226 235.346 327.236 231.82 331.208L236.307 335.191ZM258.048 311.523C261.69 307.677 265.405 303.806 269.183 299.915L264.879 295.735C261.084 299.642 257.352 303.532 253.691 307.398L258.048 311.523ZM280.483 288.411C284.243 284.624 288.055 280.824 291.911 277.016L287.695 272.747C283.826 276.568 280 280.382 276.225 284.184L280.483 288.411ZM303.395 265.772C307.231 262.047 311.102 258.319 314.999 254.593L310.853 250.256C306.945 253.993 303.063 257.731 299.216 261.467L303.395 265.772ZM326.695 243.489C330.596 239.81 334.517 236.136 338.451 232.473L334.362 228.082C330.419 231.754 326.489 235.436 322.578 239.124L326.695 243.489ZM350.28 221.518C354.239 217.872 358.204 214.239 362.168 210.626L358.126 206.192C354.155 209.812 350.182 213.451 346.215 217.105L350.28 221.518ZM374.088 199.809C378.1 196.184 382.104 192.582 386.093 189.009L382.089 184.54C378.095 188.119 374.085 191.726 370.065 195.357L374.088 199.809ZM398.134 178.261C402.179 174.663 406.199 171.1 410.188 167.576L406.215 163.08C402.222 166.608 398.196 170.175 394.146 173.778L398.134 178.261ZM422.258 156.942C426.361 153.337 430.42 149.781 434.426 146.278L430.476 141.761C426.467 145.266 422.405 148.826 418.298 152.434L422.258 156.942ZM446.599 135.655C450.73 132.057 454.791 128.526 458.77 125.07L454.835 120.54C450.854 123.998 446.792 127.531 442.658 131.131L446.599 135.655ZM470.935 114.511C475.105 110.894 479.164 107.373 483.097 103.96L479.164 99.4284C475.232 102.841 471.174 106.361 467.003 109.979L470.935 114.511ZM495.268 93.3836C499.529 89.6737 503.599 86.1216 507.453 82.7417L503.497 78.2305C499.65 81.6042 495.586 85.1514 491.328 88.8582L495.268 93.3836ZM519.627 71.9954C521.68 70.168 523.642 68.4111 525.509 66.7281L521.491 62.2719C519.635 63.9452 517.682 65.6936 515.638 67.5139L519.627 71.9954ZM525.509 66.7281C527.701 64.7512 529.857 62.922 531.975 61.2335L528.235 56.542C526.018 58.3099 523.769 60.2179 521.491 62.2719L525.509 66.7281ZM545.744 51.8543C551.094 48.85 556.117 46.8021 560.787 45.5494L559.233 39.7542C554.023 41.1518 548.537 43.4045 542.806 46.6226L545.744 51.8543ZM576.593 44.2566C582.142 44.9599 586.972 46.9581 591.031 49.8512L594.513 44.9655C589.666 41.5099 583.902 39.135 577.347 38.3042L576.593 44.2566ZM601.292 61.6483C603.802 66.3023 605.359 71.5164 605.856 76.8171L611.83 76.2571C611.259 70.1738 609.474 64.179 606.572 58.7999L601.292 61.6483ZM604.068 92.4641C602.382 97.3373 599.592 101.807 595.614 105.458L599.671 109.878C604.434 105.507 607.75 100.171 609.738 94.426L604.068 92.4641ZM581.928 113.038C577.364 114.411 572.052 115.163 565.933 115.082L565.854 121.082C572.509 121.169 578.438 120.353 583.656 118.784L581.928 113.038ZM549.504 113.147C546.88 112.596 544.154 111.922 541.322 111.115L539.678 116.885C542.638 117.729 545.502 118.438 548.272 119.019L549.504 113.147ZM541.322 111.115C539.037 110.464 536.59 109.682 533.989 108.781L532.023 114.449C534.709 115.381 537.265 116.197 539.678 116.885L541.322 111.115ZM519.402 103.166C514.854 101.279 510.027 99.174 504.949 96.8864L502.485 102.357C507.602 104.662 512.486 106.792 517.102 108.708L519.402 103.166ZM490.656 90.2905C486.052 88.1241 481.297 85.8537 476.408 83.4999L473.805 88.906C478.705 91.265 483.477 93.5435 488.102 95.7196L490.656 90.2905ZM462.184 76.6108C457.532 74.348 452.79 72.0354 447.964 69.6852L445.337 75.0796C450.158 77.4276 454.907 79.743 459.56 82.0064L462.184 76.6108ZM433.726 62.7693C429.03 60.4962 424.274 58.2049 419.471 55.9091L416.884 61.3224C421.676 63.613 426.422 65.9 431.112 68.17L433.726 62.7693ZM405.164 49.1292C400.402 46.895 395.607 44.6689 390.79 42.4637L388.293 47.9192C393.091 50.1156 397.868 52.3336 402.615 54.5609L405.164 49.1292ZM376.342 35.9495C371.503 33.8034 366.653 31.6903 361.802 29.6226L359.449 35.1421C364.271 37.1974 369.095 39.2989 373.91 41.4343L376.342 35.9495ZM347.151 23.525C342.213 21.5219 337.284 19.5789 332.379 17.7093L330.242 23.316C335.105 25.1692 339.993 27.0965 344.896 29.085L347.151 23.525ZM317.468 12.2382C314.953 11.3534 312.448 10.4919 309.954 9.65555L308.046 15.3444C310.512 16.1708 312.989 17.0226 315.476 17.898L317.468 12.2382ZM309.954 9.65555C307.522 8.84021 305.058 8.08933 302.569 7.39969L300.967 13.182C303.358 13.8443 305.719 14.5642 308.046 15.3444L309.954 9.65555ZM287.544 4.0052C282.526 3.1082 277.441 2.41894 272.323 1.91431L271.735 7.88535C276.708 8.37577 281.637 9.04435 286.488 9.91158L287.544 4.0052ZM257.023 0.934682C251.91 0.774899 246.797 0.77465 241.717 0.911905L241.879 6.90972C246.85 6.77539 251.847 6.77585 256.836 6.93175L257.023 0.934682ZM226.454 1.72662C221.31 2.13249 216.236 2.66167 211.268 3.29026L212.022 9.24279C216.9 8.6254 221.881 8.1061 226.926 7.70803L226.454 1.72662ZM196.158 5.54753C190.973 6.43985 185.962 7.42316 181.175 8.46583L182.452 14.3284C187.155 13.304 192.079 12.3376 197.175 11.4606L196.158 5.54753ZM166.324 12.0625C160.959 13.4994 156.033 14.9778 151.647 16.4345L153.538 22.1287C157.804 20.712 162.616 19.267 167.876 17.8583L166.324 12.0625ZM137.206 22.0018C134.086 23.4516 131.535 24.8942 130.003 26.2615L133.997 30.7384C134.828 29.9971 136.689 28.8584 139.735 27.4429L137.206 22.0018Z" fill="url(#paint0_linear_311_83)"/>
<defs>
<linearGradient id="paint0_linear_311_83" x1="306.015" y1="3.81174" x2="306.015" y2="472.925" gradientUnits="userSpaceOnUse">
<stop stop-color="#6401FF"/>
<stop offset="1" stop-color="#FB3EE2"/>
</linearGradient>
</defs>
</svg>
