<svg width="81" height="81" viewBox="0 0 81 81" fill="none" xmlns="http://www.w3.org/2000/svg">
<path d="M58.1621 40.5C61.3863 40.5 64.0714 43.153 63.2786 46.2781C62.3728 49.8488 60.633 53.1841 58.1682 55.9946C54.4091 60.2811 49.2199 63.0548 43.5674 63.799C37.9148 64.5431 32.1846 63.207 27.4441 60.0395C22.7036 56.8721 19.2763 52.0893 17.8007 46.5823C16.3251 41.0752 16.9019 35.2196 19.4235 30.1062C21.9451 24.9929 26.2396 20.9706 31.5069 18.7888C36.7742 16.607 42.6551 16.4145 48.0538 18.2471C51.5937 19.4488 54.7679 21.4673 57.3378 24.1067C59.587 26.4168 58.5881 30.0569 55.7958 31.6689C53.0036 33.281 49.4581 32.1358 46.7153 30.441C45.9612 29.9751 45.152 29.5922 44.3008 29.3033C41.5844 28.3812 38.6254 28.478 35.9751 29.5758C33.3248 30.6736 31.1639 32.6975 29.8952 35.2703C28.6264 37.8431 28.3362 40.7894 29.0787 43.5603C29.8211 46.3312 31.5456 48.7378 33.9308 50.3315C36.316 51.9252 39.1993 52.5975 42.0434 52.2231C44.8875 51.8486 47.4985 50.453 49.3899 48.2963C49.9826 47.6204 50.492 46.8843 50.9121 46.1037C52.44 43.2645 54.9379 40.5 58.1621 40.5Z" fill="url(#paint0_angular_311_122)"/>
<path d="M74.9422 40.5C78.2878 40.5 81.0464 43.2271 80.5478 46.5354C79.6638 52.4013 77.4976 58.0272 74.1745 63.0006C69.7243 69.6608 63.3991 74.8518 55.9987 77.9171C48.5983 80.9825 40.4551 81.7845 32.5988 80.2218C24.7426 78.6591 17.5262 74.8018 11.8622 69.1378C6.19815 63.4738 2.3409 56.2574 0.778196 48.4012C-0.784505 40.5449 0.0175299 32.4017 3.08288 25.0013C6.14823 17.6009 11.3392 11.2757 17.9994 6.82548C22.9728 3.50236 28.5986 1.33624 34.4646 0.452194C37.7729 -0.046388 40.5 2.71217 40.5 6.05781C40.5 9.40345 37.7577 12.051 34.488 12.7596C31.0218 13.5109 27.7092 14.909 24.7305 16.8993C20.0627 20.0182 16.4246 24.4512 14.2763 29.6378C12.1279 34.8243 11.5658 40.5315 12.661 46.0375C13.7562 51.5435 16.4596 56.6012 20.4292 60.5708C24.3988 64.5404 29.4565 67.2438 34.9625 68.339C40.4685 69.4342 46.1757 68.8721 51.3622 66.7237C56.5488 64.5754 60.9818 60.9373 64.1007 56.2695C66.091 53.2908 67.4892 49.9782 68.2404 46.512C68.949 43.2423 71.5965 40.5 74.9422 40.5Z" fill="url(#paint1_angular_311_122)"/>
<defs>
<radialGradient id="paint0_angular_311_122" cx="0" cy="0" r="1" gradientUnits="userSpaceOnUse" gradientTransform="translate(40.5 40.5) scale(23.5)">
<stop stop-color="#0066FF"/>
<stop offset="1" stop-color="#9317FF"/>
</radialGradient>
<radialGradient id="paint1_angular_311_122" cx="0" cy="0" r="1" gradientUnits="userSpaceOnUse" gradientTransform="translate(40.5 40.5) scale(40.5)">
<stop stop-color="#FA00FF"/>
<stop offset="1" stop-color="#FF3600"/>
</radialGradient>
</defs>
</svg>
