<svg width="213" height="75" viewBox="0 0 213 75" fill="none" xmlns="http://www.w3.org/2000/svg">
<rect width="59" height="11" rx="5.5" fill="#FD1A5E"/>
<rect x="154" width="59" height="11" rx="5.5" fill="#FF3600"/>
<rect width="48" height="11" rx="5.5" transform="matrix(-1 0 0 1 89 21)" fill="#6401FF"/>
<rect x="113" y="21" width="49" height="11" rx="5.5" fill="#6401FF"/>
<rect width="48" height="11" rx="5.5" transform="matrix(-1 0 0 1 76 43)" fill="#9317FF"/>
<rect x="113" y="43" width="49" height="11" rx="5.5" fill="#FD1A5E"/>
<rect width="76" height="11" rx="5.5" transform="matrix(-1 0 0 1 76 64)" fill="#FD1A5E"/>
<rect width="76" height="11" rx="5.5" transform="matrix(-1 0 0 1 189 64)" fill="#3B445B"/>
<rect x="66" width="34" height="11" rx="5.5" fill="#9317FF"/>
<rect width="34" height="11" rx="5.5" transform="matrix(-1 0 0 1 147 0)" fill="#FD1A5E"/>
<rect width="34" height="11" rx="5.5" transform="matrix(-1 0 0 1 34 21)" fill="#FA00FF"/>
<rect x="169" y="21" width="33" height="11" rx="5.5" fill="#9317FF"/>
<rect width="20" height="11" rx="5.5" transform="matrix(-1 0 0 1 20 43)" fill="#FF3600"/>
</svg>
