<svg width="76" height="76" viewBox="0 0 76 76" fill="none" xmlns="http://www.w3.org/2000/svg">
<circle cx="7.60021" cy="7.59997" r="1.46154" fill="#557BA7" fill-opacity="0.15"/>
<circle cx="7.60021" cy="22.8" r="1.46154" fill="#557BA7" fill-opacity="0.15"/>
<circle cx="7.60021" cy="38" r="1.46154" fill="#557BA7" fill-opacity="0.15"/>
<circle cx="7.60021" cy="53.2001" r="1.46154" fill="#557BA7" fill-opacity="0.15"/>
<circle cx="7.60021" cy="68.4" r="1.46154" fill="#557BA7" fill-opacity="0.15"/>
<circle cx="22.7999" cy="7.59997" r="1.46154" fill="#557BA7" fill-opacity="0.15"/>
<circle cx="22.7999" cy="22.8" r="1.46154" fill="#557BA7" fill-opacity="0.15"/>
<circle cx="22.7999" cy="38" r="1.46154" fill="#557BA7" fill-opacity="0.15"/>
<circle cx="22.7999" cy="53.2001" r="1.46154" fill="#557BA7" fill-opacity="0.15"/>
<circle cx="22.7999" cy="68.4" r="1.46154" fill="#557BA7" fill-opacity="0.15"/>
<circle cx="38.0001" cy="7.59997" r="1.46154" fill="#557BA7" fill-opacity="0.15"/>
<circle cx="38.0001" cy="22.8" r="1.46154" fill="#557BA7" fill-opacity="0.15"/>
<circle cx="38.0001" cy="38" r="1.46154" fill="#557BA7" fill-opacity="0.15"/>
<circle cx="38.0001" cy="53.2001" r="1.46154" fill="#557BA7" fill-opacity="0.15"/>
<circle cx="38.0001" cy="68.4" r="1.46154" fill="#557BA7" fill-opacity="0.15"/>
<circle cx="53.1998" cy="7.59997" r="1.46154" fill="#557BA7" fill-opacity="0.15"/>
<circle cx="53.1998" cy="22.8" r="1.46154" fill="#557BA7" fill-opacity="0.15"/>
<circle cx="53.1998" cy="38" r="1.46154" fill="#557BA7" fill-opacity="0.15"/>
<circle cx="53.1998" cy="53.2001" r="1.46154" fill="#557BA7" fill-opacity="0.15"/>
<circle cx="53.1998" cy="68.4" r="1.46154" fill="#557BA7" fill-opacity="0.15"/>
<circle cx="68.4" cy="7.59997" r="1.46154" fill="#557BA7" fill-opacity="0.15"/>
<circle cx="68.4" cy="22.8" r="1.46154" fill="#557BA7" fill-opacity="0.15"/>
<circle cx="68.4" cy="38" r="1.46154" fill="#557BA7" fill-opacity="0.15"/>
<circle cx="68.4" cy="53.2001" r="1.46154" fill="#557BA7" fill-opacity="0.15"/>
<circle cx="68.4" cy="68.4" r="1.46154" fill="#557BA7" fill-opacity="0.15"/>
</svg>
