<svg width="445" height="120" viewBox="0 0 445 120" fill="none" xmlns="http://www.w3.org/2000/svg">
<path d="M23.7379 49.8059H0L22.7184 120H45.7281L68.4466 49.8059H49.2233L36.699 92.1845L23.7379 49.8059Z" fill="#828282"/>
<path d="M74.563 49.8059H127.864V66.1166H96.6989V76.602H120V92.9127H96.6989V103.689H128.155V120H74.563V49.8059Z" fill="#828282"/>
<path d="M268.544 49.8059H321.845V66.1166H290.679V76.602H313.98V92.9127H290.679V103.689H322.136V120H268.544V49.8059Z" fill="#828282"/>
<path d="M262.427 49.8059H202.427V66.1166H221.359V120H243.495V66.1166H262.427V49.8059Z" fill="#828282"/>
<path fill-rule="evenodd" clip-rule="evenodd" d="M135.728 49.8059V120H157.864V92.6214H164.747L172.864 120H197.912L185.388 89.1263C194.01 85.7476 196.65 77.3302 196.893 73.5438V68.0098C195.495 53.7962 179.611 49.9515 171.845 49.8059H135.728ZM157.864 65.2428V77.1845H167.912C169.806 77.0874 173.592 75.6991 173.592 70.9224C173.592 66.5417 169.999 65.3375 167.756 65.2428H157.864Z" fill="#828282"/>
<path d="M386.213 35.8252C386.213 41.5339 380.971 46.3592 378.349 48.0582C385.485 48.0582 392.039 41.5048 392.039 33.932C392.039 26.3592 386.213 19.0776 381.262 14.8543C377.301 11.4757 375.728 7.13588 375.437 5.38831C366.553 14.2718 376.602 21.1165 378.932 23.1553C381.262 25.1941 386.213 28.6893 386.213 35.8252Z" fill="#828282"/>
<path d="M362.475 24.1747C357.524 36.8446 364.806 47.6213 374.272 48.0582C369.961 44.563 366.165 38.8349 364.806 36.4077C368.417 41.3009 373.398 45.9222 375.437 47.6213C382.136 39.9028 369.174 33.3494 365.825 30.5824C363.145 28.3689 362.475 25.3883 362.475 24.1747Z" fill="#828282"/>
<path d="M416.796 119.709L387.961 83.301L364.66 113.592L379.806 101.359L393.495 119.709H416.796Z" fill="#828282"/>
<path d="M352.718 120H329.708L357.378 82.7184L369.029 96.9902L352.718 120Z" fill="#828282"/>
<path d="M372.378 91.7475L334.66 40.3398H355.485L373.835 62.0388L444.175 0L372.378 91.7475Z" fill="#828282"/>
<path d="M382.573 36.262C382.573 42.6698 378.495 46.6989 376.456 47.9125C377.378 46.8931 379.223 43.9513 379.223 40.3397C379.223 35.8251 376.747 33.2038 372.961 30.1455C369.174 27.0873 365.971 24.029 365.971 19.9513C365.971 16.6892 367.815 14.4174 368.738 13.6892C368.505 14.7378 368.446 15.9708 368.446 16.4562C368.446 22.1358 382.573 28.2523 382.573 36.262Z" fill="#828282"/>
</svg>
